<svg xmlns="http://www.w3.org/2000/svg" viewBox="0 0 419.8 478.12"><g id="Layer_2" data-name="Layer 2"><g id="Layer_1-2" data-name="Layer 1"><path fill="white" d="M220,78.55v56.72L140,89.66v46.66L33.19,68.07,139.64,0V46.64L219.86.93v56.6c12,1.87,23.61,3.09,34.95,5.53,83.68,18,148.56,86.41,162.24,170.8a210.11,210.11,0,0,1-126.3,228.05C170.6,512.09,33.32,441.09,5.2,313.85,2,299.48,1.38,284.53.07,269.8-.59,262.51,3.65,258,9.87,258s9.79,4.26,10.1,11.69c3.36,79.72,40.67,137.71,112.78,171.76,76.63,36.17,172.61,12.36,225.17-54.17q44.4-56.19,41.85-127.7c-2.8-79.87-59-151.55-136-173.46C255,83.63,246,81.92,237,80.27,231.62,79.29,226.1,79.14,220,78.55Zm-20.33,22.09V35.47l-57.11,32.6ZM70.28,68.06l49.26,31.45V36.61Z"/><path fill="white" d="M212.75,188.33h76.93v19.48H229.9c-1.73,11.3-3.39,22.21-5.18,33.86,20.84-6.8,39.63-4.08,56.06,9.84a52.34,52.34,0,0,1,19,38.79A54.94,54.94,0,0,1,243.15,348c-28.32-.76-54.85-25.62-52.76-49.71h19.1c2.9,15.89,12.74,25.4,28.28,28.87a34.88,34.88,0,1,0-15.08-60.89c-3.27,2.82-5.71,3.29-9.05,1a15.43,15.43,0,0,0-2.24-1.08c-9.76-4.58-9.88-4.6-8.37-15,2.95-20.43,6.05-40.83,9.1-61.24A8.28,8.28,0,0,1,212.75,188.33Z"/><path fill="white" d="M169.57,347.83H150.09V238.29H110.26V218.36c19.62-1.59,37.67-5.37,40-30.09h19.33Z"/></g></g></svg>