<svg width="19" height="19" viewBox="0 0 19 19" fill="none" xmlns="http://www.w3.org/2000/svg">
<path d="M14.8753 15.9948L2.55984 3.67938C2.25083 3.37037 2.25083 2.8688 2.55984 2.55979C2.86884 2.25079 3.37042 2.25079 3.67942 2.55979L15.9949 14.8752C16.3039 15.1842 16.3039 15.6858 15.9949 15.9948C15.6859 16.3038 15.1843 16.3038 14.8753 15.9948Z" fill="black"/>
<path d="M15.9948 3.67941L3.67938 15.9949C3.37037 16.3039 2.8688 16.3039 2.55979 15.9949C2.25079 15.6858 2.25079 15.1843 2.55979 14.8753L14.8752 2.55982C15.1842 2.25082 15.6858 2.25082 15.9948 2.55982C16.3038 2.86883 16.3038 3.3704 15.9948 3.67941Z" fill="black"/>
</svg>
