<?xml version="1.0" encoding="utf-8"?>
<!-- Generator: Adobe Illustrator 21.1.0, SVG Export Plug-In . SVG Version: 6.00 Build 0)  -->
<svg version="1.1" id="Layer_1" xmlns="http://www.w3.org/2000/svg" xmlns:xlink="http://www.w3.org/1999/xlink" x="0px" y="0px"
	 viewBox="0 0 595.3 585.1" style="enable-background:new 0 0 595.3 585.1;" xml:space="preserve">
<style type="text/css">
	.st0{fill:#FFFFFF;}
</style>
<path class="st0" d="M592.3,576.2L3.2,501.8l132.7-336.6L455.1,2.5L592.3,576.2z M14.3,495.2L582,567L449.8,14.1L142.2,170.8
	L14.3,495.2z"/>
<rect x="-98" y="252.9" transform="matrix(0.6711 -0.7414 0.7414 0.6711 -111.3687 255.7565)" class="st0" width="661.2" height="1"/>
<rect x="362.6" y="68.3" transform="matrix(0.6693 -0.743 0.743 0.6693 -154.6839 392.0909)" class="st0" width="1" height="603"/>
<path class="st0" d="M486.2,415.7c0,1.7-0.2,3.4-0.7,5.1c-0.5,1.8-1.3,3.4-2.4,4.9c-1.1,1.5-2.5,2.7-4.2,3.7
	c-1.7,0.9-3.8,1.4-6.3,1.4c-4.7,0-8.3-1.6-10.8-5c-2.5-3.3-3.7-7.4-3.7-12.4c0-2.4,0.4-4.7,1.1-6.9c0.7-2.2,1.7-4.1,2.9-5.8
	c1.4-1.8,3.1-3.3,4.9-4.4c1.9-1.1,4.3-1.7,7.2-1.7c2.9,0,5.3,0.2,7.1,0.7c1.9,0.5,3.5,1.3,4.9,2.4V415.7z M486.6,441.4h14.1v-82.5
	h-14.5v25.9c-1.1-0.4-2-0.8-2.8-1.1c-0.8-0.3-1.7-0.6-2.7-0.8c-1-0.2-2.1-0.4-3.3-0.5c-1.2-0.1-2.8-0.2-4.7-0.2
	c-1.4,0-3.1,0.2-4.9,0.6c-1.9,0.4-3.9,1-5.9,1.9c-2,0.9-4,2-6,3.3c-2,1.3-3.8,3-5.4,5c-2,2.4-3.6,5.3-5,8.7c-1.3,3.4-2,7.4-2,11.9
	c0,4.8,0.7,9,2.2,12.7c1.5,3.7,3.4,6.8,5.8,9.4c2.4,2.6,5.1,4.5,8.2,5.8c3.1,1.3,6.1,2,9.3,2c2.2,0,4.2-0.2,6-0.7
	c1.8-0.5,3.4-1.1,4.8-1.9c1.4-0.7,2.7-1.6,3.8-2.5c1.1-0.9,2-1.8,2.7-2.6L486.6,441.4z M378.1,441.4h14.6V410c0-2.1,0.4-4.1,1.1-6
	c0.7-1.9,1.7-3.5,2.9-4.9c1.2-1.4,2.7-2.5,4.5-3.3c1.7-0.8,3.6-1.2,5.6-1.2c3.2,0,5.8,1,7.9,3c2,2,3,4.9,3,8.6v35.1h14.6v-35.3
	c0-7.3-1.9-13.2-5.7-17.5c-3.8-4.3-9.3-6.5-16.6-6.5c-2.3,0-4.4,0.2-6.2,0.7c-1.8,0.5-3.4,1.1-4.9,1.9c-1.4,0.8-2.7,1.6-3.7,2.5
	c-1,0.9-1.9,1.8-2.7,2.6l-0.4-6.6h-14V441.4z M309.8,418.7c0,7.3,1.9,13.2,5.7,17.5c3.8,4.3,9.3,6.5,16.6,6.5c2.3,0,4.4-0.2,6.2-0.7
	c1.8-0.5,3.4-1.1,4.8-1.9c1.4-0.8,2.6-1.6,3.7-2.5c1.1-0.9,2-1.8,2.7-2.6l0.4,6.6h14v-58h-14.6v31.4c0,2.1-0.4,4.1-1.1,6
	c-0.7,1.9-1.7,3.5-2.9,4.9c-1.2,1.4-2.7,2.5-4.5,3.3c-1.7,0.8-3.6,1.2-5.6,1.2c-3.2,0-5.8-1-7.9-3c-2-2-3-4.9-3-8.6v-35.1h-14.6
	V418.7z M260.4,429.1c-2.1-1.1-3.8-2.6-5.1-4.4c-1.4-1.8-2.4-3.8-3-5.9c-0.7-2.1-1-4.3-1-6.4c0-2.1,0.3-4.2,1-6.4
	c0.7-2.2,1.7-4.2,3-5.9c1.4-1.8,3.1-3.2,5.1-4.3c2.1-1.1,4.5-1.7,7.3-1.7c2.8,0,5.2,0.6,7.3,1.7c2.1,1.1,3.8,2.6,5.1,4.3
	c1.4,1.8,2.4,3.8,3,5.9c0.7,2.2,1,4.3,1,6.4c0,2.1-0.3,4.3-1,6.4c-0.7,2.1-1.7,4.1-3,5.9c-1.4,1.8-3.1,3.3-5.1,4.4
	c-2.1,1.1-4.5,1.7-7.3,1.7C264.9,430.8,262.5,430.2,260.4,429.1 M238.8,424.3c1.5,3.8,3.7,7.1,6.4,9.9c2.7,2.8,6,5.1,9.8,6.7
	c3.8,1.6,8.1,2.5,12.7,2.5c4.6,0,8.8-0.8,12.7-2.5c3.8-1.6,7.1-3.9,9.8-6.7c2.7-2.8,4.8-6.1,6.4-9.9c1.5-3.8,2.3-7.7,2.3-11.9
	c0-4.2-0.8-8.2-2.3-11.9c-1.5-3.8-3.7-7-6.4-9.8c-2.7-2.8-6-5-9.8-6.7c-3.8-1.6-8.1-2.5-12.7-2.5c-4.6,0-8.8,0.8-12.7,2.5
	c-3.8,1.7-7.1,3.9-9.8,6.7c-2.7,2.8-4.8,6.1-6.4,9.8c-1.5,3.8-2.3,7.7-2.3,11.9C236.5,416.6,237.3,420.5,238.8,424.3 M193.5,441.4
	h14.6v-31.3c0-2.1,0.4-4.1,1.2-5.8c0.8-1.7,1.8-3.2,3.2-4.5c1.3-1.2,2.9-2.2,4.7-2.8c1.8-0.7,3.7-1,5.7-1c1.4,0,2.6,0.1,3.7,0.2
	c1,0.2,2,0.5,3,0.9l3-13.7c-1.2-0.4-2.3-0.7-3.4-0.9c-1.1-0.2-2.4-0.2-3.8-0.2c-2.4,0-4.5,0.3-6.4,0.9c-1.9,0.6-3.5,1.3-4.9,2.1
	c-1.4,0.8-2.6,1.7-3.7,2.7c-1,1-1.9,1.9-2.5,2.7l-0.4-7.3h-14V441.4z M164.8,416.8c0,4.1-1.1,7.1-3.4,9c-2.3,1.9-5.6,2.8-10.1,2.8
	c-4.9,0-8.5-1.5-10.8-4.6c-2.2-3.1-3.3-6.8-3.3-11.3c0-2.4,0.4-4.7,1.2-6.9c0.8-2.2,2-4.1,3.5-5.8c1.6-1.6,3.5-3,5.7-4
	c2.2-1,4.8-1.5,7.8-1.5c2.6,0,4.6,0.1,5.8,0.3c1.2,0.2,2.4,0.5,3.6,0.9V416.8z M127.9,461.6c1.3,1,2.7,1.9,4.3,2.6
	c1.5,0.7,3.2,1.4,5.1,1.9c1.9,0.5,4,0.9,6.3,1.2c2.4,0.3,5.1,0.4,8.1,0.4c4,0,7.6-0.6,11-1.7c3.4-1.1,6.3-2.7,8.8-4.9
	c2.5-2.1,4.4-4.8,5.8-7.9c1.4-3.1,2.1-6.7,2.1-10.8V386c-2.6-0.9-6.1-1.8-10.3-2.6c-4.2-0.8-8.9-1.2-13.9-1.2c-5,0-9.6,0.8-13.6,2.4
	c-4,1.6-7.5,3.8-10.3,6.6c-2.8,2.8-5,6.1-6.6,9.9c-1.5,3.8-2.3,7.8-2.3,12.1c0,4.1,0.6,7.9,1.8,11.3c1.2,3.4,2.9,6.4,5.3,8.9
	c2.3,2.5,5.1,4.5,8.4,5.9c3.3,1.4,7,2.1,11.2,2.1c3.9,0,7-0.5,9.3-1.5c2.4-1,4.5-2.4,6.5-4v6.3c0,4.1-1.3,7.3-3.8,9.7
	c-2.6,2.3-5.7,3.5-9.5,3.5c-3.6,0-6.8-0.4-9.5-1.1c-2.7-0.7-5.2-1.8-7.5-3.4L127.9,461.6z"/>
<path class="st0" d="M273.3,360.7h13.6l11.5-35l11.9,35h14.1l19.7-58h-15.3l-11,40.3l-12.4-40.3h-12.3L280.8,343l-11.1-40.3h-16.1
	L273.3,360.7z M206.9,325.5c0-1.5,0.3-3,1-4.5c0.7-1.5,1.6-2.8,2.8-4c1.2-1.2,2.8-2.2,4.6-3c1.9-0.8,4-1.2,6.4-1.2
	c2.2,0,4.2,0.4,5.9,1.2c1.7,0.8,3.2,1.8,4.3,3c1.1,1.2,2,2.5,2.5,4c0.6,1.5,0.9,3,0.9,4.5H206.9z M241.7,343.4
	c-0.5,0.5-1.2,1.1-2.2,1.9c-1,0.8-2.2,1.5-3.7,2.2c-1.5,0.7-3.3,1.3-5.4,1.9c-2.1,0.5-4.6,0.8-7.4,0.8c-1.9,0-3.8-0.3-5.8-1
	c-1.9-0.7-3.7-1.6-5.2-2.8c-1.5-1.2-2.8-2.7-3.7-4.5c-1-1.7-1.4-3.7-1.4-5.8h43.3V334c0-4.1-0.5-8.2-1.5-12.1c-1-4-2.6-7.5-4.8-10.6
	c-2.2-3.1-5.2-5.7-8.8-7.6c-3.7-1.9-8.1-2.9-13.4-2.9c-4.4,0-8.4,0.8-11.9,2.4c-3.6,1.6-6.7,3.7-9.3,6.4c-2.6,2.7-4.6,5.9-6.1,9.6
	c-1.4,3.7-2.2,7.7-2.2,11.9c0,4.7,0.7,9,2.2,12.9c1.4,3.9,3.5,7.2,6.2,10c2.7,2.8,5.9,4.9,9.7,6.5c3.8,1.6,8,2.4,12.6,2.4
	c4.5,0,8.4-0.5,11.7-1.5c3.3-1,5.9-2.1,8-3.3c2.1-1.2,3.7-2.4,4.8-3.5c1.1-1.1,1.8-1.8,2-2L241.7,343.4z M127.1,360.7h14.6v-31.4
	c0-2.1,0.4-4.1,1.1-6c0.7-1.9,1.7-3.5,2.9-4.9c1.2-1.4,2.7-2.5,4.5-3.3c1.7-0.8,3.6-1.2,5.6-1.2c3.2,0,5.8,1,7.9,3c2,2,3,4.9,3,8.6
	v35.1h14.6v-35.3c0-7.3-1.9-13.2-5.7-17.5c-3.8-4.3-9.3-6.5-16.6-6.5c-2.3,0-4.4,0.2-6.2,0.7c-1.8,0.5-3.4,1.1-4.9,1.9
	c-1.4,0.8-2.7,1.6-3.7,2.5c-1,0.9-1.9,1.8-2.7,2.6l-0.4-6.6h-14V360.7z"/>
</svg>
