<svg height='35px' width='35px' fill="#ffffff" xmlns="http://www.w3.org/2000/svg" xmlns:xlink="http://www.w3.org/1999/xlink" version="1.1" x="0px" y="0px" viewBox="0 0 100 100" enable-background="new 0 0 100 100" xml:space="preserve"><path d="M50,5C33.295,5,19.751,18.543,19.751,35.249c0,14.417,7.868,25.489,29.435,59.224c0.45,0.703,1.179,0.703,1.628,0  C72.38,60.738,80.249,49.666,80.249,35.249C80.249,18.543,66.706,5,50,5z M50,49.248c-7.731,0-14-6.269-14-13.999  c0-7.732,6.269-14,14-14c7.73,0,14,6.268,14,14C64,42.979,57.73,49.248,50,49.248z"></path></svg>