<svg width="14" height="14" viewBox="0 0 14 14" fill="none" xmlns="http://www.w3.org/2000/svg">
<g clip-path="url(#clip0)">
<path d="M6.25445 3.06253C6.09965 2.97314 5.90891 2.97314 5.75408 3.06253L2.3687 4.99641H0.500366C0.224017 4.99641 0 5.22043 0 5.49675V8.49889C0 8.77524 0.224017 8.99926 0.500366 8.99926H2.3687L5.75611 10.9346C5.99607 11.0717 6.30168 10.9883 6.43874 10.7484C6.4819 10.6728 6.50459 10.5873 6.50462 10.5003V3.49534C6.50444 3.31677 6.4091 3.15183 6.25445 3.06253Z" fill="white"/>
<path d="M8.3955 5.18309C8.22226 4.96816 7.90768 4.93412 7.69248 5.10704C7.47709 5.28013 7.44279 5.59509 7.61588 5.81049C7.61588 5.81049 7.61591 5.81052 7.61591 5.81055C8.13334 6.51755 8.13334 7.47823 7.61591 8.18523C7.44147 8.39954 7.4738 8.71471 7.68812 8.88915C7.90243 9.06359 8.21759 9.03125 8.39204 8.81694C8.39318 8.81553 8.39432 8.81413 8.39547 8.81269C9.21411 7.74127 9.21411 6.25448 8.3955 5.18309Z" fill="white"/>
<path d="M10.3969 3.68199C10.2237 3.46706 9.90908 3.43303 9.69389 3.60594C9.47849 3.77903 9.44419 4.094 9.61731 4.30939C9.61731 4.30942 9.61734 4.30942 9.61734 4.30945C10.8092 5.90358 10.8092 8.09215 9.61734 9.68627C9.4429 9.90059 9.47524 10.2158 9.68955 10.3902C9.90386 10.5646 10.219 10.5323 10.3935 10.318C10.3946 10.3166 10.3958 10.3152 10.3969 10.3137C11.867 8.34754 11.867 5.64816 10.3969 3.68199Z" fill="white"/>
<path d="M12.3983 2.18085C12.2239 1.96654 11.9087 1.9342 11.6944 2.10864C11.4817 2.28174 11.448 2.59377 11.6188 2.80831C13.4761 5.29253 13.4761 8.70309 11.6188 11.1873C11.4443 11.4016 11.4767 11.7168 11.691 11.8912C11.9053 12.0656 12.2205 12.0333 12.3949 11.819C12.3961 11.8176 12.3972 11.8162 12.3983 11.8147C14.5339 8.95845 14.5339 5.03708 12.3983 2.18085Z" fill="white"/>
</g>
<defs>
<clipPath id="clip0">
<rect width="14" height="14" fill="white"/>
</clipPath>
</defs>
</svg>
