<svg width="20" height="20" viewBox="0 0 20 20" fill="white" xmlns="http://www.w3.org/2000/svg">
<path d="M10.472 0.328388L13.0163 6.6425L19.5306 7.22978C19.6311 7.23889 19.7268 7.27883 19.8058 7.3446C19.8848 7.41037 19.9435 7.49906 19.9748 7.59962C20.006 7.70018 20.0083 7.80816 19.9814 7.91008C19.9545 8.01201 19.8996 8.10337 19.8235 8.17278L14.8805 12.6646L16.3607 19.3412C16.3832 19.4441 16.3763 19.5518 16.341 19.6507C16.3056 19.7496 16.2433 19.8354 16.1618 19.8974C16.0803 19.9595 15.9831 19.995 15.8825 19.9996C15.7819 20.0043 15.6822 19.9778 15.5958 19.9234L9.9952 16.383L4.3946 19.9234C4.30822 19.9778 4.20851 20.0043 4.10788 19.9996C4.00725 19.995 3.91014 19.9595 3.82863 19.8974C3.74712 19.8354 3.6848 19.7496 3.64943 19.6507C3.61407 19.5518 3.60721 19.4441 3.62972 19.3412L5.11948 12.6646L0.176544 8.17278C0.100448 8.10337 0.0455223 8.01201 0.0186161 7.91008C-0.00829018 7.80816 -0.00598605 7.70018 0.0252411 7.59962C0.0564683 7.49906 0.115237 7.41037 0.194217 7.3446C0.273198 7.27883 0.368895 7.23889 0.469376 7.22978L6.98367 6.6425L9.52635 0.328388C9.56574 0.231047 9.63158 0.148015 9.71566 0.0896464C9.79975 0.0312773 9.89836 0.000152588 9.9992 0.000152588C10.1 0.000152588 10.1987 0.0312773 10.2827 0.0896464C10.3668 0.148015 10.4327 0.231047 10.472 0.328388Z"/>
</svg>
