<svg width="17" height="17" viewBox="0 0 17 17" fill="none" xmlns="http://www.w3.org/2000/svg">
<g clip-path="url(#clip0)">
<path d="M17 3.22894C16.3678 3.50625 15.6942 3.69006 14.9919 3.77931C15.7144 3.34794 16.2658 2.67006 16.5251 1.853C15.8514 2.25462 15.1077 2.53831 14.3151 2.69663C13.6754 2.01556 12.7638 1.59375 11.7693 1.59375C9.83981 1.59375 8.28644 3.15988 8.28644 5.07981C8.28644 5.35606 8.30981 5.62169 8.36719 5.87456C5.46975 5.73325 2.90594 4.34456 1.18362 2.22913C0.882937 2.75081 0.706563 3.34794 0.706563 3.99075C0.706563 5.19775 1.32812 6.26769 2.25463 6.88713C1.69469 6.8765 1.14538 6.71394 0.68 6.45788C0.68 6.4685 0.68 6.48231 0.68 6.49612C0.68 8.18975 1.88806 9.5965 3.47225 9.92056C3.18856 9.99813 2.87937 10.0353 2.5585 10.0353C2.33538 10.0353 2.11012 10.0226 1.89869 9.97581C2.35025 11.356 3.63163 12.3707 5.15525 12.4036C3.9695 13.3312 2.46394 13.8901 0.834063 13.8901C0.54825 13.8901 0.274125 13.8773 0 13.8422C1.54381 14.8378 3.37344 15.4062 5.3465 15.4062C11.7597 15.4062 15.266 10.0938 15.266 5.48887C15.266 5.33481 15.2607 5.18606 15.2533 5.03838C15.9449 4.5475 16.5261 3.93444 17 3.22894Z" fill="white"/>
</g>
<defs>
<clipPath id="clip0">
<rect width="17" height="17" fill="white"/>
</clipPath>
</defs>
</svg>
