<svg width="18" height="18" viewBox="0 0 18 18" fill="none" xmlns="http://www.w3.org/2000/svg">
<g clip-path="url(#clip0)">
<path d="M18.118 7.23595C18.01 6.31795 17.812 5.47195 17.56 4.66195C17.254 3.79795 16.804 3.09595 16.138 2.48395C15.472 1.87195 14.68 1.36795 13.654 1.00795C12.592 0.647951 11.332 0.449951 9.766 0.449951C8.452 0.449951 7.336 0.647951 6.328 1.00795C5.374 1.42195 4.564 1.92595 3.952 2.51995C3.286 3.18595 2.782 3.88795 2.476 4.69795C2.116 5.50795 1.918 6.37195 1.864 7.23595C1.81 7.43395 1.81 7.68595 1.81 7.99195V10.062C1.81 10.368 1.81 10.62 1.864 10.818C1.918 11.736 2.17 12.546 2.53 13.392C2.89 14.202 3.394 14.904 4.042 15.516C4.708 16.128 5.518 16.632 6.472 16.992C7.426 17.406 8.542 17.55 9.766 17.55C10.774 17.55 11.638 17.496 12.394 17.298C13.15 17.154 13.816 16.884 14.41 16.632H14.428C15.094 16.326 15.094 15.408 14.446 15.084L14.32 15.012C13.78 14.742 13.168 14.724 12.61 14.922C12.61 14.922 12.61 14.922 12.592 14.922C12.286 15.03 11.926 15.12 11.476 15.174C11.026 15.228 10.468 15.228 9.748 15.228C8.884 15.228 8.128 15.12 7.48 14.922C6.868 14.724 6.31 14.418 5.86 14.004C5.41 13.608 5.05 13.086 4.798 12.546C4.546 12.042 4.348 11.376 4.294 10.728C4.24 10.53 4.24 10.278 4.24 9.97195C4.24 9.66595 4.204 9.35995 4.204 8.99995C4.204 8.69395 4.258 8.38795 4.258 8.08195C4.258 7.77595 4.258 7.52395 4.312 7.32595C4.366 6.65995 4.564 6.06595 4.762 5.50795C5.014 4.94995 5.374 4.44595 5.77 4.04995C6.22 3.68995 6.778 3.34795 7.444 3.13195C8.11 2.93395 8.866 2.77195 9.766 2.77195C10.882 2.77195 11.782 2.87995 12.502 3.07795C13.204 3.22195 13.762 3.52795 14.23 3.88795C14.68 4.30195 15.04 4.75195 15.238 5.30995C15.436 5.92195 15.598 6.56995 15.688 7.32595C15.742 7.73995 15.742 8.08195 15.742 8.38795C15.742 8.74795 15.742 9.08995 15.688 9.50395C15.688 9.95395 15.58 10.26 15.436 10.458C15.292 10.602 15.04 10.71 14.734 10.71C14.428 10.71 14.176 10.602 13.978 10.458C13.78 10.26 13.672 10.008 13.672 9.64795V5.39995C13.672 5.25595 13.618 5.09395 13.528 5.00395C13.42 4.89595 13.258 4.85995 13.114 4.85995H11.8C11.656 4.85995 11.548 4.91395 11.404 5.00395C11.296 5.11195 11.26 5.25595 11.26 5.39995V5.59795C11.062 5.34595 10.864 5.09395 10.558 4.93195C10.306 4.73395 9.856 4.67995 9.298 4.67995C8.794 4.67995 8.344 4.78795 7.93 4.98595C7.48 5.18395 7.174 5.48995 6.868 5.84995C6.562 6.26395 6.364 6.71395 6.202 7.21795C6.058 7.72195 6.004 8.33395 6.004 8.98195C6.004 9.59395 6.058 10.188 6.202 10.71C6.346 11.268 6.598 11.718 6.904 12.078C7.21 12.492 7.57 12.744 7.966 12.942C8.416 13.14 8.884 13.248 9.388 13.248C9.838 13.248 10.198 13.248 10.504 13.14C10.81 13.086 11.008 12.996 11.206 12.888C11.404 12.78 11.566 12.636 11.71 12.474C11.818 12.366 11.962 12.222 12.07 12.06C12.268 12.312 12.574 12.51 13.024 12.726C13.42 12.924 13.978 13.032 14.752 13.032C15.112 13.032 15.508 12.978 15.922 12.834C16.318 12.69 16.678 12.474 16.984 12.222C17.29 11.916 17.596 11.61 17.794 11.214C17.992 10.8 18.1 10.296 18.154 9.79195C18.154 9.37795 18.208 8.98195 18.208 8.47795C18.172 8.04595 18.118 7.57795 18.118 7.23595ZM10.828 10.458C10.522 10.764 10.216 10.908 9.766 10.908C9.406 10.908 9.064 10.764 8.812 10.458C8.506 10.152 8.362 9.64795 8.362 8.99995C8.362 8.29795 8.506 7.77595 8.812 7.48795C9.064 7.18195 9.424 7.03795 9.766 7.03795C10.216 7.03795 10.522 7.18195 10.828 7.48795C11.08 7.79395 11.224 8.29795 11.224 8.99995C11.242 9.70195 11.08 10.17 10.828 10.458Z" fill="white"/>
</g>
<defs>
<clipPath id="clip0">
<rect width="18" height="18" fill="white"/>
</clipPath>
</defs>
</svg>
