<svg width="25" height="27" viewBox="0 0 25 27" fill="none" xmlns="http://www.w3.org/2000/svg">
<path d="M25.1768 10.8538C25.0148 9.4768 24.7178 8.2078 24.3398 6.9928C23.8808 5.6968 23.2058 4.6438 22.2068 3.7258C21.2078 2.8078 20.0198 2.0518 18.4808 1.5118C16.8878 0.971805 14.9978 0.674805 12.6488 0.674805C10.6778 0.674805 9.00384 0.971805 7.49184 1.5118C6.06084 2.1328 4.84584 2.8888 3.92784 3.7798C2.92884 4.7788 2.17284 5.8318 1.71384 7.0468C1.17384 8.2618 0.876844 9.5578 0.795844 10.8538C0.714844 11.1508 0.714844 11.5288 0.714844 11.9878V15.0929C0.714844 15.5519 0.714844 15.9299 0.795844 16.2269C0.876844 17.6039 1.25484 18.8189 1.79484 20.0879C2.33484 21.3029 3.09084 22.3559 4.06284 23.2739C5.06184 24.1919 6.27684 24.9479 7.70784 25.4879C9.13884 26.1089 10.8128 26.3249 12.6488 26.3249C14.1608 26.3249 15.4568 26.2439 16.5908 25.9469C17.7248 25.7309 18.7238 25.3259 19.6148 24.9479H19.6418C20.6408 24.4889 20.6408 23.1119 19.6688 22.6259L19.4798 22.5179C18.6698 22.1129 17.7518 22.0859 16.9148 22.3829C16.9148 22.3829 16.9148 22.3829 16.8878 22.3829C16.4288 22.5449 15.8888 22.6799 15.2138 22.7609C14.5388 22.8419 13.7018 22.8419 12.6218 22.8419C11.3258 22.8419 10.1918 22.6799 9.21984 22.3829C8.30184 22.0859 7.46484 21.6269 6.78984 21.0059C6.11484 20.4119 5.57484 19.6289 5.19684 18.8189C4.81884 18.0629 4.52184 17.0639 4.44084 16.0919C4.35984 15.7949 4.35984 15.4169 4.35984 14.9578C4.35984 14.4988 4.30584 14.0398 4.30584 13.4998C4.30584 13.0408 4.38684 12.5818 4.38684 12.1228C4.38684 11.6638 4.38684 11.2858 4.46784 10.9888C4.54884 9.9898 4.84584 9.0988 5.14284 8.2618C5.52084 7.4248 6.06084 6.6688 6.65484 6.0748C7.32984 5.5348 8.16684 5.0218 9.16584 4.6978C10.1648 4.4008 11.2988 4.1578 12.6488 4.1578C14.3228 4.1578 15.6728 4.3198 16.7528 4.6168C17.8058 4.8328 18.6428 5.2918 19.3448 5.8318C20.0198 6.4528 20.5598 7.1278 20.8568 7.9648C21.1538 8.8828 21.3968 9.8548 21.5318 10.9888C21.6128 11.6098 21.6128 12.1228 21.6128 12.5818C21.6128 13.1218 21.6128 13.6348 21.5318 14.2558C21.5318 14.9308 21.3698 15.3899 21.1538 15.6869C20.9378 15.9029 20.5598 16.0649 20.1008 16.0649C19.6418 16.0649 19.2638 15.9029 18.9668 15.6869C18.6698 15.3899 18.5078 15.0119 18.5078 14.4718V8.0998C18.5078 7.8838 18.4268 7.6408 18.2918 7.5058C18.1298 7.3438 17.8868 7.2898 17.6708 7.2898H15.6998C15.4838 7.2898 15.3218 7.3708 15.1058 7.5058C14.9438 7.6678 14.8898 7.8838 14.8898 8.0998V8.3968C14.5928 8.0188 14.2958 7.6408 13.8368 7.3978C13.4588 7.1008 12.7838 7.0198 11.9468 7.0198C11.1908 7.0198 10.5158 7.1818 9.89484 7.4788C9.21984 7.7758 8.76084 8.2348 8.30184 8.7748C7.84284 9.3958 7.54584 10.0708 7.30284 10.8268C7.08684 11.5828 7.00584 12.5008 7.00584 13.4728C7.00584 14.3908 7.08684 15.2819 7.30284 16.0649C7.51884 16.9019 7.89684 17.5769 8.35584 18.1169C8.81484 18.7379 9.35484 19.1159 9.94884 19.4129C10.6238 19.7099 11.3258 19.8719 12.0818 19.8719C12.7568 19.8719 13.2968 19.8719 13.7558 19.7099C14.2148 19.6289 14.5118 19.4939 14.8088 19.3319C15.1058 19.1699 15.3488 18.9539 15.5648 18.7109C15.7268 18.5489 15.9428 18.3329 16.1048 18.0899C16.4018 18.4679 16.8608 18.7649 17.5358 19.0889C18.1298 19.3859 18.9668 19.5479 20.1278 19.5479C20.6678 19.5479 21.2618 19.4669 21.8828 19.2509C22.4768 19.0349 23.0168 18.7109 23.4758 18.3329C23.9348 17.8739 24.3938 17.4149 24.6908 16.8209C24.9878 16.1999 25.1498 15.4439 25.2308 14.6878C25.2308 14.0668 25.3118 13.4728 25.3118 12.7168C25.2578 12.0688 25.1768 11.3668 25.1768 10.8538ZM14.2418 15.6869C13.7828 16.1459 13.3238 16.3619 12.6488 16.3619C12.1088 16.3619 11.5958 16.1459 11.2178 15.6869C10.7588 15.2279 10.5428 14.4718 10.5428 13.4998C10.5428 12.4468 10.7588 11.6638 11.2178 11.2318C11.5958 10.7728 12.1358 10.5568 12.6488 10.5568C13.3238 10.5568 13.7828 10.7728 14.2418 11.2318C14.6198 11.6908 14.8358 12.4468 14.8358 13.4998C14.8628 14.5528 14.6198 15.2549 14.2418 15.6869Z" fill="white"/>
</svg>
