<svg width="19" height="19" viewBox="0 0 19 19" fill="none" xmlns="http://www.w3.org/2000/svg">
<path d="M18.2083 10.2752H0.791667C0.354665 10.2752 0 9.92056 0 9.48356C0 9.04656 0.354665 8.69189 0.791667 8.69189H18.2083C18.6453 8.69189 19 9.04656 19 9.48356C19 9.92056 18.6453 10.2752 18.2083 10.2752Z" fill="black"/>
<path d="M18.2083 4.20589H0.791667C0.354665 4.20589 0 3.85123 0 3.41423C0 2.97722 0.354665 2.62256 0.791667 2.62256H18.2083C18.6453 2.62256 19 2.97722 19 3.41423C19 3.85123 18.6453 4.20589 18.2083 4.20589Z" fill="black"/>
<path d="M18.2083 16.3446H0.791667C0.354665 16.3446 0 15.9899 0 15.5529C0 15.1159 0.354665 14.7612 0.791667 14.7612H18.2083C18.6453 14.7612 19 15.1159 19 15.5529C19 15.9899 18.6453 16.3446 18.2083 16.3446Z" fill="black"/>
</svg>
