<svg id="newfrontiers" xmlns="http://www.w3.org/2000/svg" width="43.937" height="13.274" viewBox="0 0 43.937 13.274">
  <path id="Path_7" data-name="Path 7" d="M534.58,71.075c-.125.293-.234.6-.38.879a8.082,8.082,0,0,1-1.286,1.78,19.586,19.586,0,0,1-3.949,3.21,33.131,33.131,0,0,1-7.534,3.525,26.872,26.872,0,0,1-4.462,1.066,16.152,16.152,0,0,1-2.87.191,8.086,8.086,0,0,1-2.5-.414,3.639,3.639,0,0,1-1.07-.582,2.165,2.165,0,0,1-.8-2.131,3.367,3.367,0,0,1,.49-1.3.7.7,0,0,1,0,.093,2.165,2.165,0,0,0,.852,2.126,4.306,4.306,0,0,0,1.877.782,10.862,10.862,0,0,0,2.641.169,25.889,25.889,0,0,0,7.843-1.773,31.923,31.923,0,0,0,6.438-3.257,19.84,19.84,0,0,0,3.177-2.559,10.109,10.109,0,0,0,1.431-1.767,1.028,1.028,0,0,1,.095-.113Z" transform="translate(-490.644 -68.459)" fill="#e5e4da"/>
  <path id="Path_8" data-name="Path 8" d="M664.323,7.951a6.866,6.866,0,0,0-.009-.82,1.3,1.3,0,0,0-.2-.52A4.226,4.226,0,0,0,662,4.959a7.772,7.772,0,0,0-2.272-.488,16.879,16.879,0,0,0-3.807.18,35.688,35.688,0,0,0-6.672,1.737.278.278,0,0,1-.151.019c.046-.025.09-.054.137-.075a31.675,31.675,0,0,1,7.236-2.4,19.312,19.312,0,0,1,3.154-.367,9.874,9.874,0,0,1,2.891.282,3.672,3.672,0,0,1,1.605.831A2.145,2.145,0,0,1,664.77,6.7,3.561,3.561,0,0,1,664.323,7.951Z" transform="translate(-624.786 -3.56)" fill="#e5e4da"/>
  <path id="Path_9" data-name="Path 9" d="M180.588,126.259l-.535,1.88c-.034.121-.073.24-.1.362a.132.132,0,0,1-.142.119c-.188,0-.377,0-.565,0-.126,0-.136-.088-.158-.172q-.213-.819-.425-1.639c-.148-.571-.3-1.141-.441-1.712-.05-.2-.113-.23.162-.251.151-.012.3-.041.448-.061.22-.03.226-.024.278.188q.267,1.117.534,2.232c.025.1.055.205.092.345.026-.086.043-.137.057-.188.145-.565.286-1.13.435-1.7a.95.95,0,0,0-.029-.8c.3-.027.572-.054.844-.073.1-.007.1.081.113.146q.151.612.3,1.225c.1.432.21.863.353,1.3.018-.061.038-.121.053-.182q.286-1.121.571-2.243c.054-.212.054-.212.278-.213.364,0,.364,0,.264.341l-.95,3.251c-.058.2-.058.2-.268.2-.125,0-.252-.005-.377.005-.142.012-.2-.053-.228-.184-.135-.587-.277-1.172-.417-1.757-.033-.14-.068-.279-.1-.419Z" transform="translate(-171.599 -120.207)" fill="#e5e4da"/>
  <path id="Path_10" data-name="Path 10" d="M540.793,125.072c.253-.158.463-.295.678-.421a.989.989,0,0,1,1.477.684,1.944,1.944,0,0,1,.03.318q0,1.243,0,2.484c0,.209,0,.209-.206.211h-.49c-.172,0-.175,0-.175-.182v-2.2c.021-.541-.255-.765-.817-.747a.335.335,0,0,0-.324.211,1.725,1.725,0,0,0-.168.745c.007.64.018,1.281.028,1.919v.151a.092.092,0,0,1-.1.1h-.7a.09.09,0,0,1-.1-.105v-.151c.008-.834.019-1.668.023-2.5,0-.276-.01-.552-.023-.829-.006-.12.03-.171.157-.166.182.008.364,0,.546,0,.16,0,.163.006.166.176Z" transform="translate(-519.722 -119.958)" fill="#e5e4da"/>
  <path id="Path_11" data-name="Path 11" d="M4.505,125.029c.254-.158.463-.3.678-.421a.978.978,0,0,1,1.493.785c.027.538.012,1.079.014,1.62q0,.555,0,1.111c0,.173-.006.176-.183.179s-.339,0-.508,0-.179-.006-.179-.183v-2.09a3.216,3.216,0,0,0-.012-.357.5.5,0,0,0-.354-.444l-.035-.013c-.483-.151-.724-.021-.839.469a2.423,2.423,0,0,0-.052.541c0,.608.007,1.217.011,1.826,0,.251,0,.251-.258.252H3.828c-.175,0-.179-.005-.179-.182,0-.515.008-1.029.008-1.544,0-.615,0-1.23,0-1.846,0-.175,0-.178.177-.18s.326,0,.49,0c.182,0,.183,0,.186.194C4.506,124.824,4.505,124.9,4.505,125.029Z" transform="translate(-3.65 -119.91)" fill="#e5e4da"/>
  <path id="Path_12" data-name="Path 12" d="M438.469,125.09a3.83,3.83,0,0,1-.342,1.363.484.484,0,0,1-.137.173c-.205.174-.424.334-.624.515a1.2,1.2,0,0,1-1.178.243,1.538,1.538,0,0,1-1.095-1.281,2.952,2.952,0,0,1,.35-1.759.545.545,0,0,1,.151-.162c.209-.171.428-.329.63-.507a1.122,1.122,0,0,1,.842-.247A1.484,1.484,0,0,1,438.469,125.09Zm-.772.485a2.049,2.049,0,0,0-.264-1.017.972.972,0,0,0-1-.463.436.436,0,0,0-.384.264,1.983,1.983,0,0,0,.008,1.726,1.129,1.129,0,0,0,1.278.563.238.238,0,0,0,.208-.206C437.6,126.153,437.647,125.864,437.7,125.575Z" transform="translate(-418.814 -118.91)" fill="#e5e4da"/>
  <path id="Path_13" data-name="Path 13" d="M744.248,126.665h-.49c-.173,0-.173,0-.142.163a1.4,1.4,0,0,0,1.889,1.052c.079-.026.161-.075.188.051a.136.136,0,0,1-.036.12,5.163,5.163,0,0,1-.991.532,1.4,1.4,0,0,1-1.365-.336,1.626,1.626,0,0,1-.508-.945,2.837,2.837,0,0,1,.2-1.657.861.861,0,0,1,.353-.428c.276-.161.548-.331.836-.467a.912.912,0,0,1,1.087.212,1.515,1.515,0,0,1,.423,1.24.184.184,0,0,1-.09.124q-.326.167-.662.316a.485.485,0,0,1-.183.027c-.17,0-.339,0-.508,0Zm-.063-.455h.356c.294,0,.294,0,.243-.286a.718.718,0,0,0-.85-.649c-.066.008-.162.052-.18.1-.08.229-.139.464-.2.7-.024.094.025.136.123.133Z" transform="translate(-714.906 -120.09)" fill="#e5e4da"/>
  <path id="Path_14" data-name="Path 14" d="M99.64,126.892c-.176,0-.352.008-.527,0-.13-.008-.144.044-.126.156a1.4,1.4,0,0,0,1.124,1.126,1.6,1.6,0,0,0,.779-.066c.072-.024.136-.061.183.045s-.036.131-.1.165c-.267.151-.537.3-.8.452a1.06,1.06,0,0,1-.735.066,1.551,1.551,0,0,1-1.284-1.39,2.947,2.947,0,0,1,.2-1.53.908.908,0,0,1,.382-.475c.27-.158.537-.325.821-.456a.945.945,0,0,1,1.13.245,1.524,1.524,0,0,1,.377,1.2.183.183,0,0,1-.087.126,4.781,4.781,0,0,1-.663.312,1.716,1.716,0,0,1-.464.03c-.069,0-.138,0-.207,0Zm-.108-.455h.32c.382,0,.391-.012.284-.387a.714.714,0,0,0-.836-.55c-.087.011-.162.038-.188.13q-.094.341-.18.685c-.022.09.024.124.113.123Z" transform="translate(-94.565 -120.318)" fill="#e5e4da"/>
  <path id="Path_15" data-name="Path 15" d="M310.718,79.141V77.73c0-.194,0-.188-.2-.2a2.513,2.513,0,0,1-.267-.038c.038-.075.075-.154.116-.231.054-.1.11-.195.252-.188.025,0,.068-.075.077-.12.04-.188.056-.385.108-.571a1.472,1.472,0,0,1,.559-.826,6.139,6.139,0,0,1,.711-.455.841.841,0,0,1,.381-.05c.115,0,.127.067.069.163-.093.156-.18.315-.264.477a.151.151,0,0,1-.181.093c-.1-.016-.212-.012-.319-.02s-.157.035-.159.137c0,.357-.006.716-.009,1.072,0,.081.042.109.118.108q.188,0,.377,0c.171,0,.174.009.1.168a.51.51,0,0,0-.034.067.3.3,0,0,1-.357.22c-.2-.015-.2,0-.2.2q0,1.373.008,2.747v.151c0,.075-.024.12-.106.119h-.7c-.115,0-.106-.082-.106-.158V79.141Z" transform="translate(-298.7 -72.358)" fill="#e5e4da"/>
  <path id="Path_16" data-name="Path 16" d="M895.862,126.737a.46.46,0,0,0,.316.464c.249.117.494.244.744.361a1,1,0,0,1,.166,1.679,6.15,6.15,0,0,1-.811.469.4.4,0,0,1-.257.017,1.17,1.17,0,0,1-.883-.765c-.038-.1-.018-.162.084-.206.167-.072.332-.148.494-.232.105-.055.143-.017.2.075a1.816,1.816,0,0,0,.364.469c.255.2.359.153.431-.164a.471.471,0,0,0-.2-.527,2.75,2.75,0,0,0-.384-.193,4.8,4.8,0,0,1-.475-.223,1.026,1.026,0,0,1-.461-1.156.75.75,0,0,1,.309-.478,6.185,6.185,0,0,1,.756-.455.763.763,0,0,1,.863.2,2.769,2.769,0,0,1,.353.5c.044.065.029.113-.045.151-.181.086-.361.174-.539.267-.08.042-.121.023-.162-.056a1.2,1.2,0,0,0-.2-.315.936.936,0,0,0-.339-.218c-.191-.065-.282.008-.312.206C895.867,126.649,895.866,126.693,895.862,126.737Z" transform="translate(-861.539 -121.2)" fill="#e5e4da"/>
  <path id="Path_17" data-name="Path 17" d="M628.21,104.61c.169-.145.339-.287.5-.435a.226.226,0,0,0,.073-.133,3.7,3.7,0,0,0,.012-.414.159.159,0,0,1,.125-.179c.191-.059.381-.125.569-.2.094-.035.129,0,.131.087.005.226.015.452.013.678,0,.124.046.165.167.162.268-.006.536,0,.8,0l.025.044a3.651,3.651,0,0,1-.458.421c-.085.056-.231.021-.35.023-.177,0-.18,0-.181.175,0,.583-.005,1.168,0,1.75a3.315,3.315,0,0,0,.041.468.285.285,0,0,0,.348.282,2.391,2.391,0,0,0,.369-.067c.069-.016.119-.016.157.055s-.006.113-.06.151c-.217.151-.426.312-.653.444a.787.787,0,0,1-.791,0,.5.5,0,0,1-.25-.475v-2.6c0-.183,0-.183-.188-.185h-.374Z" transform="translate(-604.683 -99.483)" fill="#e5e4da"/>
  <path id="Path_18" data-name="Path 18" d="M834.776,126.092c.03-.021.06-.04.089-.062.079-.061.154-.128.237-.186.39-.271.576-.381.951.2.024.038.038.079.062.116.066.105.048.174-.065.242a6.613,6.613,0,0,0-.559.381c-.1.075-.122.035-.168-.056a1.759,1.759,0,0,0-.22-.319.083.083,0,0,0-.151.025,2.9,2.9,0,0,0-.191.563,4.3,4.3,0,0,0-.017.676c0,.521.006,1.041.008,1.562,0,.177,0,.178-.179.18s-.364,0-.546,0-.184,0-.182-.194q.005-.716.014-1.431.011-.959.024-1.919c0-.2,0-.2.2-.2.163,0,.326,0,.49,0s.174.006.178.184c0,.063,0,.125,0,.188A.183.183,0,0,0,834.776,126.092Z" transform="translate(-802.571 -121.026)" fill="#e5e4da"/>
  <path id="Path_19" data-name="Path 19" d="M373.786,126.133c.159-.121.285-.222.417-.314a1.663,1.663,0,0,1,.246-.137.293.293,0,0,1,.365.056,5.235,5.235,0,0,1,.355.48c.051.075.031.133-.051.186q-.309.2-.607.412c-.089.064-.106.021-.143-.055a1.634,1.634,0,0,0-.2-.312c-.078-.1-.146-.057-.2.038a1.24,1.24,0,0,0-.179.628c0,.671,0,1.343,0,2.014,0,.339.044.3-.3.306-.157,0-.314,0-.47,0-.107,0-.144-.041-.141-.145.007-.332.009-.665.013-1q.014-1.2.028-2.391c0-.206,0-.206.207-.207.17,0,.339,0,.508,0,.116,0,.159.044.151.156C373.782,125.929,373.786,126.011,373.786,126.133Z" transform="translate(-358.969 -121.044)" fill="#e5e4da"/>
  <path id="Path_20" data-name="Path 20" d="M704.728,127.783v1.676c0,.2,0,.2-.2.2-.163,0-.327,0-.49,0-.113,0-.155-.038-.153-.153.006-.276,0-.552,0-.829V126.1c0-.2,0-.2.209-.21.169,0,.339,0,.508-.01.118-.006.151.043.151.154,0,.583,0,1.168,0,1.751Z" transform="translate(-677.51 -121.268)" fill="#e5e4da"/>
  <path id="Path_21" data-name="Path 21" d="M699.6,83.67c-.026.032-.044.058-.066.08-.156.163-.314.325-.468.49a.137.137,0,0,1-.181.042c-.151-.075-.307-.143-.462-.212-.081-.038-.108-.075-.034-.151.176-.179.345-.364.523-.542a.149.149,0,0,1,.127-.038c.175.084.345.18.515.274A.306.306,0,0,1,699.6,83.67Z" transform="translate(-672.177 -80.331)" fill="#e5e4da"/>
</svg>
