<svg xmlns="http://www.w3.org/2000/svg" width="499.412" height="55" viewBox="0 0 499.412 55">
  <g id="Group_28" data-name="Group 28" transform="translate(1 1.5)">
    <g id="Group_30" data-name="Group 30" transform="translate(195.109 31.5)">
      <path id="Polygon_1" data-name="Polygon 1" d="M10.147,1.4a1,1,0,0,1,1.707,0L21.07,16.479A1,1,0,0,1,20.217,18H1.783A1,1,0,0,1,.93,16.479Z" transform="translate(64) rotate(90)" fill="#fff"/>
      <g id="Group_18" data-name="Group 18" transform="translate(89 4)">
        <path id="Polygon_2" data-name="Polygon 2" d="M6.136,1.481a1,1,0,0,1,1.728,0L13.123,10.5a1,1,0,0,1-.864,1.5H1.741a1,1,0,0,1-.864-1.5Z" transform="translate(12) rotate(90)" fill="#fff"/>
        <path id="Polygon_3" data-name="Polygon 3" d="M6.136,1.481a1,1,0,0,1,1.728,0L13.123,10.5a1,1,0,0,1-.864,1.5H1.741a1,1,0,0,1-.864-1.5Z" transform="translate(21) rotate(90)" fill="#fff"/>
      </g>
      <g id="Group_19" data-name="Group 19" transform="translate(21 18) rotate(180)">
        <path id="Polygon_2-2" data-name="Polygon 2" d="M6.136,1.481a1,1,0,0,1,1.728,0L13.123,10.5a1,1,0,0,1-.864,1.5H1.741a1,1,0,0,1-.864-1.5Z" transform="translate(12) rotate(90)" fill="#fff"/>
        <path id="Polygon_3-2" data-name="Polygon 3" d="M6.136,1.481a1,1,0,0,1,1.728,0L13.123,10.5a1,1,0,0,1-.864,1.5H1.741a1,1,0,0,1-.864-1.5Z" transform="translate(21) rotate(90)" fill="#fff"/>
      </g>
    </g>
    <g id="Group_27" data-name="Group 27">
      <g id="Group_17" data-name="Group 17" transform="translate(34)">
        <line id="Line_4" data-name="Line 4" x2="422.412" transform="translate(0 7.5)" fill="none" stroke="#d1cc43" stroke-width="1"/>
        <line id="Line_5" data-name="Line 5" y2="16" transform="translate(19.559)" fill="none" stroke="#fff" stroke-linecap="round" stroke-width="3"/>
      </g>
      <text id="_1:32" data-name="1:32" transform="translate(12 12.5)" fill="#fff" font-size="12" font-family="Nunito-Regular, Nunito"><tspan x="-12.174" y="0">1:32</tspan></text>
      <text id="_23:02" data-name="23:02" transform="translate(482.412 12.5)" fill="#fff" font-size="12" font-family="Nunito-Regular, Nunito"><tspan x="-15.774" y="0">23:02</tspan></text>
    </g>
  </g>
</svg>
