<svg width="24" height="29" viewBox="0 0 24 29" fill="none" xmlns="http://www.w3.org/2000/svg">
<path d="M23.0654 13.5389C23.2668 13.6621 23.4333 13.8352 23.5488 14.0414C23.6643 14.2476 23.7249 14.4802 23.7249 14.7166C23.7249 14.9531 23.6643 15.1856 23.5488 15.3919C23.4333 15.5981 23.2668 15.7711 23.0654 15.8943L2.29905 28.6112C2.09033 28.7388 1.85145 28.8085 1.60696 28.813C1.36247 28.8175 1.12119 28.7567 0.907906 28.6369C0.694625 28.517 0.517041 28.3425 0.393396 28.1311C0.269752 27.9197 0.204509 27.6791 0.204372 27.4341V1.99775C0.204509 1.75274 0.269752 1.51218 0.393396 1.3008C0.517041 1.08942 0.694625 0.91484 0.907906 0.794995C1.12119 0.67515 1.36247 0.614366 1.60696 0.618887C1.85145 0.623409 2.09033 0.693074 2.29905 0.820724L23.0654 13.5389Z" fill="white"/>
</svg>
