<svg width="21" height="22" viewBox="0 0 21 22" fill="none" xmlns="http://www.w3.org/2000/svg">
<path d="M13.3309 9.372C13.3309 9.5172 13.3267 9.658 13.3141 9.8032C13.3099 9.8736 13.3015 9.944 13.2973 10.0144C13.2721 10.2696 13.3351 9.7724 13.2973 10.0188C13.2553 10.3004 13.1881 10.582 13.1041 10.8548C13.0663 10.9868 13.0159 11.11 12.9697 11.2376C12.9067 11.4048 13.0747 11 12.9781 11.2156C12.9445 11.286 12.9151 11.3564 12.8815 11.4268C12.7597 11.6776 12.6253 11.9152 12.4699 12.144C12.4279 12.2056 12.3817 12.2672 12.3397 12.3288C12.3313 12.342 12.4951 12.1352 12.4195 12.2188C12.4027 12.2408 12.3859 12.2628 12.3691 12.2848C12.2767 12.4036 12.1801 12.518 12.0751 12.628C11.9869 12.7248 11.8945 12.8172 11.7979 12.9052C11.7559 12.9448 11.7139 12.98 11.6761 13.0196C11.6467 13.046 11.6215 13.068 11.5921 13.0944C11.4577 13.2132 11.7559 12.9668 11.6551 13.046C11.4367 13.2088 11.2225 13.3672 10.9873 13.4992C10.8739 13.5652 10.7605 13.6268 10.6429 13.684C10.6177 13.6972 10.5925 13.706 10.5673 13.7192C10.4497 13.7808 10.7857 13.6268 10.6639 13.6752C10.5925 13.7016 10.5253 13.7324 10.4539 13.7588C10.1977 13.8556 9.93311 13.9348 9.66851 13.9876C9.60131 14.0008 9.53831 14.014 9.47111 14.0228C9.24431 14.0624 9.67691 14.0008 9.49631 14.0228C9.35351 14.0404 9.20651 14.0536 9.06371 14.058C8.78231 14.0668 8.50091 14.0536 8.21951 14.0228C8.03471 14.0052 8.47151 14.0624 8.24471 14.0228C8.17751 14.0096 8.11451 14.0008 8.04731 13.9876C7.90871 13.9568 7.77011 13.9216 7.63571 13.882C7.50971 13.8468 7.38371 13.8028 7.26191 13.7544C7.19891 13.7324 7.14011 13.706 7.08131 13.6796C7.00991 13.6488 6.94271 13.5872 7.17791 13.7236C7.14431 13.706 7.11071 13.6928 7.07711 13.6752C6.83351 13.5564 6.60251 13.4244 6.37991 13.2704C6.27071 13.1956 6.16991 13.1164 6.06491 13.0372C5.95991 12.958 6.24551 13.1912 6.14891 13.1032C6.12791 13.0856 6.10691 13.068 6.08591 13.0504C6.03131 13.002 5.97251 12.9536 5.92211 12.9008C5.72471 12.716 5.53991 12.518 5.37191 12.3024C5.34671 12.2716 5.32571 12.2408 5.30051 12.2144C5.22911 12.1264 5.38871 12.3376 5.38031 12.3244C5.34671 12.2672 5.30471 12.2188 5.26691 12.1616C5.18711 12.0428 5.11151 11.924 5.04011 11.8008C4.97291 11.6864 4.90991 11.5676 4.85111 11.4488C4.82171 11.3872 4.79231 11.33 4.76711 11.2684C4.75031 11.2332 4.73771 11.198 4.72091 11.1628C4.66631 11.0484 4.82171 11.4356 4.75031 11.2376C4.65791 10.9824 4.57391 10.7228 4.51091 10.4544C4.48151 10.318 4.45211 10.1816 4.43111 10.0452C4.42691 10.0056 4.42271 9.966 4.41431 9.9264C4.41851 9.9352 4.44791 10.2212 4.43111 10.0408C4.42271 9.9616 4.41431 9.878 4.41011 9.7988C4.38911 9.50399 4.38911 9.2048 4.41431 8.91C4.41851 8.8396 4.42691 8.7692 4.43531 8.69879C4.45631 8.50959 4.39331 8.9848 4.43531 8.7252C4.45631 8.58 4.48571 8.43039 4.51931 8.28959C4.58231 8.01239 4.67471 7.74839 4.77131 7.47999C4.80911 7.37 4.71251 7.62079 4.72091 7.60759C4.73771 7.57679 4.75031 7.5372 4.76711 7.502C4.79231 7.44039 4.82171 7.3788 4.85111 7.31719C4.91411 7.1896 4.98131 7.06199 5.05271 6.93879C5.11991 6.82439 5.18711 6.70999 5.26271 6.59999C5.30051 6.54719 5.33831 6.49439 5.37611 6.43719C5.43911 6.34479 5.28371 6.55599 5.29631 6.54719C5.32571 6.5164 5.35511 6.47239 5.38451 6.43719C5.55251 6.22599 5.73731 6.02359 5.93471 5.83879C5.98091 5.79479 6.03131 5.75079 6.07751 5.70679C6.09851 5.68919 6.11951 5.67159 6.14051 5.65399C6.26651 5.54399 6.06491 5.71559 6.05651 5.71999C6.16991 5.64079 6.27911 5.54839 6.39251 5.46919C6.61511 5.31519 6.85031 5.17879 7.08971 5.06439C7.12331 5.04679 7.16111 5.03359 7.19051 5.01599C7.20311 5.00719 6.96371 5.11279 7.06871 5.06879C7.13171 5.04679 7.19051 5.02039 7.24931 4.99399C7.37951 4.94559 7.51391 4.89719 7.64831 4.85759C7.77431 4.81799 7.90451 4.78719 8.03471 4.76079C8.10191 4.74759 8.16491 4.73439 8.23211 4.72119C8.26991 4.71679 8.30771 4.71239 8.34551 4.70359C8.31611 4.70799 8.08931 4.73439 8.23631 4.72119C8.52611 4.69039 8.82011 4.67719 9.10991 4.68599C9.23591 4.69039 9.36191 4.70359 9.48791 4.71679C9.73991 4.74759 9.28631 4.68159 9.46691 4.71239C9.54251 4.72559 9.61811 4.73879 9.68951 4.75639C9.96671 4.81359 10.2355 4.89279 10.5001 4.99839C10.5505 5.02039 10.6051 5.04239 10.6555 5.05999C10.8109 5.12159 10.5673 5.02039 10.5589 5.01599C10.5883 5.03359 10.6303 5.04679 10.6597 5.06439C10.7857 5.12599 10.9075 5.19199 11.0293 5.26239C11.2645 5.39879 11.4745 5.56599 11.6971 5.71999C11.7097 5.72879 11.5123 5.56159 11.5921 5.63639C11.6173 5.66279 11.6509 5.68479 11.6761 5.71119C11.7265 5.75519 11.7727 5.79919 11.8189 5.84319C11.9197 5.93999 12.0205 6.03679 12.1129 6.1424C12.2011 6.2392 12.2851 6.34039 12.3691 6.44159C12.4195 6.50759 12.5413 6.69679 12.3607 6.41959C12.4027 6.48119 12.4489 6.5428 12.4909 6.60439C12.6421 6.8332 12.7807 7.07079 12.9025 7.32159C12.9319 7.38319 12.9613 7.4448 12.9865 7.5064C12.9991 7.5328 13.0075 7.55919 13.0201 7.58559C13.0789 7.70879 12.9361 7.3568 12.9781 7.4844C13.0243 7.6208 13.0789 7.75719 13.1209 7.89799C13.2049 8.17079 13.2679 8.448 13.3141 8.73399C13.3519 8.9716 13.2931 8.51839 13.3141 8.70759C13.3225 8.778 13.3267 8.84839 13.3351 8.9188C13.3267 9.06399 13.3309 9.218 13.3309 9.372C13.3351 9.9484 13.8097 10.4984 14.3809 10.472C14.9479 10.4456 15.4351 9.988 15.4309 9.372C15.4225 7.98599 15.0277 6.57799 14.2549 5.44719C13.4401 4.25919 12.3523 3.38359 11.0419 2.87759C8.53871 1.91399 5.53151 2.76759 3.84311 4.92799C2.94851 6.07199 2.42351 7.40959 2.30591 8.88359C2.19671 10.274 2.53271 11.7216 3.22151 12.914C3.88511 14.0668 4.88891 15.048 6.06491 15.6024C7.38371 16.2228 8.80751 16.4076 10.2313 16.1084C12.7933 15.5716 14.9395 13.2616 15.3343 10.5468C15.3889 10.1552 15.4351 9.768 15.4351 9.3764C15.4393 8.8 14.9521 8.25 14.3851 8.2764C13.8097 8.2984 13.3351 8.756 13.3309 9.372Z" fill="black"/>
<path d="M12.1212 14.168C13.5198 15.6332 14.9226 17.1028 16.3212 18.568C16.5186 18.7748 16.7118 18.9772 16.9092 19.184C17.2998 19.5932 18.0096 19.6196 18.396 19.184C18.7824 18.744 18.8118 18.062 18.396 17.6264C16.9974 16.1612 15.5946 14.6916 14.196 13.2264C13.9986 13.0196 13.8054 12.8172 13.608 12.6104C13.2174 12.2012 12.5076 12.1748 12.1212 12.6104C11.7348 13.0548 11.7054 13.7368 12.1212 14.168Z" fill="black"/>
</svg>
