<svg width="17" height="18" viewBox="0 0 17 18" fill="none" xmlns="http://www.w3.org/2000/svg">
<path d="M11.3309 7.37196C11.3309 7.51716 11.3267 7.65796 11.3141 7.80316C11.3099 7.87357 11.3015 7.94396 11.2973 8.01437C11.2721 8.26957 11.3351 7.77236 11.2973 8.01876C11.2553 8.30036 11.1881 8.58196 11.1041 8.85476C11.0663 8.98676 11.0159 9.10996 10.9697 9.23757C10.9067 9.40477 11.0747 8.99996 10.9781 9.21556C10.9445 9.28596 10.9151 9.35637 10.8815 9.42677C10.7597 9.67757 10.6253 9.91516 10.4699 10.144C10.4279 10.2056 10.3817 10.2672 10.3397 10.3288C10.3313 10.342 10.4951 10.1352 10.4195 10.2188C10.4027 10.2408 10.3859 10.2628 10.3691 10.2848C10.2767 10.4036 10.1801 10.518 10.0751 10.628C9.98691 10.7248 9.89451 10.8172 9.7979 10.9052C9.75591 10.9448 9.71391 10.98 9.67611 11.0196C9.64671 11.046 9.62151 11.068 9.5921 11.0944C9.45771 11.2132 9.75591 10.9668 9.65511 11.046C9.43671 11.2088 9.22251 11.3672 8.98731 11.4992C8.87391 11.5652 8.76051 11.6268 8.64291 11.684C8.61771 11.6972 8.59251 11.706 8.56731 11.7192C8.44971 11.7808 8.78571 11.6268 8.66391 11.6752C8.59251 11.7016 8.52531 11.7324 8.45391 11.7588C8.19771 11.8556 7.93311 11.9348 7.66851 11.9876C7.60131 12.0008 7.53831 12.014 7.47111 12.0228C7.24431 12.0624 7.67691 12.0008 7.49631 12.0228C7.35351 12.0404 7.20651 12.0536 7.06371 12.058C6.78231 12.0668 6.50091 12.0536 6.21951 12.0228C6.03471 12.0052 6.47151 12.0624 6.24471 12.0228C6.17751 12.0096 6.11451 12.0008 6.04731 11.9876C5.90871 11.9568 5.77011 11.9216 5.63571 11.882C5.50971 11.8468 5.38371 11.8028 5.26191 11.7544C5.19891 11.7324 5.14011 11.706 5.08131 11.6796C5.00991 11.6488 4.94271 11.5872 5.17791 11.7236C5.14431 11.706 5.11071 11.6928 5.07711 11.6752C4.83351 11.5564 4.60251 11.4244 4.37991 11.2704C4.27071 11.1956 4.16991 11.1164 4.06491 11.0372C3.95991 10.958 4.24551 11.1912 4.14891 11.1032C4.12791 11.0856 4.10691 11.068 4.08591 11.0504C4.03131 11.002 3.97251 10.9536 3.92211 10.9008C3.72471 10.716 3.53991 10.518 3.37191 10.3024C3.34671 10.2716 3.32571 10.2408 3.30051 10.2144C3.22911 10.1264 3.38871 10.3376 3.38031 10.3244C3.34671 10.2672 3.30471 10.2188 3.26691 10.1616C3.18711 10.0428 3.11151 9.92397 3.04011 9.80077C2.97291 9.68637 2.90991 9.56757 2.85111 9.44877C2.82171 9.38717 2.79231 9.32997 2.76711 9.26836C2.75031 9.23317 2.73771 9.19796 2.72091 9.16276C2.66631 9.04836 2.82171 9.43556 2.75031 9.23757C2.65791 8.98236 2.57391 8.72276 2.51091 8.45437C2.48151 8.31797 2.45211 8.18156 2.43111 8.04517C2.42691 8.00557 2.42271 7.96597 2.41431 7.92636C2.41851 7.93516 2.44791 8.22116 2.43111 8.04076C2.42271 7.96156 2.41431 7.87796 2.41011 7.79876C2.38911 7.50396 2.38911 7.20476 2.41431 6.90996C2.41851 6.83956 2.42691 6.76916 2.43531 6.69876C2.45631 6.50956 2.39331 6.98477 2.43531 6.72516C2.45631 6.57996 2.48571 6.43036 2.51931 6.28956C2.58231 6.01236 2.67471 5.74836 2.77131 5.47996C2.80911 5.36996 2.71251 5.62076 2.72091 5.60756C2.73771 5.57676 2.75031 5.53716 2.76711 5.50196C2.79231 5.44036 2.82171 5.37876 2.85111 5.31716C2.91411 5.18956 2.98131 5.06196 3.05271 4.93876C3.11991 4.82436 3.18711 4.70996 3.26271 4.59996C3.30051 4.54716 3.33831 4.49436 3.37611 4.43716C3.43911 4.34476 3.28371 4.55596 3.29631 4.54716C3.32571 4.51636 3.35511 4.47236 3.38451 4.43716C3.55251 4.22596 3.73731 4.02356 3.93471 3.83876C3.98091 3.79476 4.03131 3.75076 4.07751 3.70676C4.09851 3.68916 4.11951 3.67156 4.14051 3.65396C4.26651 3.54396 4.06491 3.71556 4.05651 3.71996C4.16991 3.64076 4.27911 3.54836 4.39251 3.46916C4.61511 3.31516 4.85031 3.17876 5.08971 3.06436C5.12331 3.04676 5.16111 3.03356 5.19051 3.01596C5.20311 3.00716 4.96371 3.11276 5.06871 3.06876C5.13171 3.04676 5.19051 3.02036 5.24931 2.99396C5.37951 2.94556 5.51391 2.89716 5.64831 2.85756C5.77431 2.81796 5.90451 2.78716 6.03471 2.76076C6.10191 2.74756 6.16491 2.73436 6.23211 2.72116C6.26991 2.71676 6.30771 2.71236 6.34551 2.70356C6.31611 2.70796 6.08931 2.73436 6.23631 2.72116C6.52611 2.69036 6.82011 2.67716 7.10991 2.68596C7.23591 2.69036 7.36191 2.70356 7.48791 2.71676C7.73991 2.74756 7.28631 2.68156 7.46691 2.71236C7.54251 2.72556 7.61811 2.73876 7.68951 2.75636C7.96671 2.81356 8.23551 2.89276 8.50011 2.99836C8.55051 3.02036 8.60511 3.04236 8.65551 3.05996C8.81091 3.12156 8.56731 3.02036 8.55891 3.01596C8.58831 3.03356 8.63031 3.04676 8.65971 3.06436C8.78571 3.12596 8.90751 3.19196 9.02931 3.26236C9.26451 3.39876 9.47451 3.56596 9.69711 3.71996C9.70971 3.72876 9.51231 3.56156 9.5921 3.63636C9.61731 3.66276 9.65091 3.68476 9.67611 3.71116C9.72651 3.75516 9.77271 3.79916 9.8189 3.84316C9.91971 3.93996 10.0205 4.03676 10.1129 4.14236C10.2011 4.23916 10.2851 4.34036 10.3691 4.44156C10.4195 4.50756 10.5413 4.69676 10.3607 4.41956C10.4027 4.48116 10.4489 4.54276 10.4909 4.60436C10.6421 4.83316 10.7807 5.07076 10.9025 5.32156C10.9319 5.38316 10.9613 5.44476 10.9865 5.50636C10.9991 5.53276 11.0075 5.55916 11.0201 5.58556C11.0789 5.70876 10.9361 5.35676 10.9781 5.48436C11.0243 5.62076 11.0789 5.75716 11.1209 5.89796C11.2049 6.17076 11.2679 6.44796 11.3141 6.73396C11.3519 6.97156 11.2931 6.51836 11.3141 6.70756C11.3225 6.77796 11.3267 6.84836 11.3351 6.91876C11.3267 7.06396 11.3309 7.21796 11.3309 7.37196C11.3351 7.94836 11.8097 8.49837 12.3809 8.47196C12.9479 8.44556 13.4351 7.98796 13.4309 7.37196C13.4225 5.98596 13.0277 4.57796 12.2549 3.44716C11.4401 2.25916 10.3523 1.38356 9.04191 0.877564C6.53871 -0.0860363 3.53151 0.767564 1.84311 2.92796C0.948507 4.07196 0.423507 5.40956 0.305907 6.88356C0.196707 8.27396 0.532707 9.72157 1.22151 10.914C1.88511 12.0668 2.88891 13.048 4.06491 13.6024C5.38371 14.2228 6.80751 14.4076 8.23131 14.1084C10.7933 13.5716 12.9395 11.2616 13.3343 8.54676C13.3889 8.15516 13.4351 7.76796 13.4351 7.37637C13.4393 6.79996 12.9521 6.24996 12.3851 6.27636C11.8097 6.29836 11.3351 6.75596 11.3309 7.37196Z" fill="black"/>
<path d="M10.1215 12.168C11.5201 13.6332 12.9229 15.1028 14.3215 16.568C14.5189 16.7748 14.7121 16.9772 14.9095 17.184C15.3001 17.5932 16.0099 17.6196 16.3963 17.184C16.7827 16.744 16.8121 16.062 16.3963 15.6264C14.9977 14.1612 13.5949 12.6916 12.1963 11.2264C11.9989 11.0196 11.8057 10.8172 11.6083 10.6104C11.2177 10.2012 10.5079 10.1748 10.1215 10.6104C9.73508 11.0548 9.70568 11.7368 10.1215 12.168Z" fill="black"/>
</svg>
