<svg xmlns="http://www.w3.org/2000/svg" viewBox="0 0 429.98 489.79"><g id="Layer_2" data-name="Layer 2"><g id="Layer_1-2" data-name="Layer 1"><path fill="white" d="M205,59.1V1.3l81.52,46.49V0L396.07,70l-109,69.69V91.92l-82,46.76V80.23c-10.8,1.58-20.88,2.45-30.68,4.59C96,102,37.73,162.41,23.32,241.16,4.61,343.46,72.93,444.35,175,465.24,281.31,487,383.71,419.9,405.57,313.81c2.64-12.8,2.87-26.1,4.1-39.18.48-5.08,2.93-8.43,7.87-9.71a9.06,9.06,0,0,1,10.73,4.38,14.92,14.92,0,0,1,1.7,7.57c-1.23,62.18-24.42,114.84-70.28,156.73S259,493.76,197.1,489.07C99.41,481.68,18.89,406.79,2.85,309.25-15.55,197.38,57,89.91,167.77,65.15,179.73,62.48,192,61.18,205,59.1Zm20.39,44.37L284.1,70,225.42,36.53Zm81.94-1.07L358.09,70,307.36,37.65Z"/><path fill="white" d="M217.91,203.41h78.81v20H235.47C233.71,235,232,246.1,230.23,258c22.11-7.21,41.91-4,58.89,11.46,11.77,10.7,17.8,24.32,18,40.31.37,32.39-26.69,58.91-58.26,57.2-29.63-1.61-56.24-26.64-53.65-50.89h19.38c2.93,15.85,12.69,25.49,28.1,29.35a35.75,35.75,0,0,0,30.41-62.85c-13.36-10.51-32.32-10.44-45.09.73-3.27,2.86-5.65,3.05-9,1.07a34.27,34.27,0,0,0-7.66-3.6c-4.39-1.25-4.82-4-4.21-7.89,3.48-22.53,6.79-45.08,10.17-67.63A13.8,13.8,0,0,1,217.91,203.41Z"/><path fill="white" d="M153.93,203.42h19.83V366.68H153.9V254.51H113.12V234.13C133.1,232.45,151.61,228.7,153.93,203.42Z"/></g></g></svg>