<svg width="380" height="62" viewBox="0 0 380 62" fill="none" xmlns="http://www.w3.org/2000/svg">
<path d="M3.28047 47H8.18047V21.45H8.28047L14.8805 47H20.5305V12H15.6305V32.95H15.5305L10.1805 12H3.28047V47ZM32.5684 47.5C37.9684 47.5 40.9184 44.3 40.9184 38.7V20.3C40.9184 14.7 37.9684 11.5 32.5684 11.5C27.1684 11.5 24.2184 14.7 24.2184 20.3V38.7C24.2184 44.3 27.1684 47.5 32.5684 47.5ZM32.5684 42.5C30.8184 42.5 29.7184 41.55 29.7184 39.05V19.95C29.7184 17.45 30.8184 16.5 32.5684 16.5C34.3184 16.5 35.4184 17.45 35.4184 19.95V39.05C35.4184 41.55 34.3184 42.5 32.5684 42.5ZM44.6379 47H49.5379V21.45H49.6379L56.2379 47H61.8879V12H56.9879V32.95H56.8879L51.5379 12H44.6379V47ZM65.9758 47H80.9758V42H71.4758V31.25H79.0258V26.25H71.4758V17H80.9758V12H65.9758V47ZM100.098 47.5C105.498 47.5 108.448 44.3 108.448 38.7V20.3C108.448 14.7 105.498 11.5 100.098 11.5C94.6977 11.5 91.7477 14.7 91.7477 20.3V38.7C91.7477 44.3 94.6977 47.5 100.098 47.5ZM100.098 42.5C98.3477 42.5 97.2477 41.55 97.2477 39.05V19.95C97.2477 17.45 98.3477 16.5 100.098 16.5C101.848 16.5 102.948 17.45 102.948 19.95V39.05C102.948 41.55 101.848 42.5 100.098 42.5ZM112.167 47H117.667V31.75H124.767V26.75H117.667V17H126.717V12H112.167V47ZM145.363 47.5C150.763 47.5 153.563 44.3 153.563 38.7V12H148.263V39.1C148.263 41.6 147.213 42.5 145.463 42.5C143.713 42.5 142.662 41.6 142.662 39.1V12H137.163V38.7C137.163 44.3 139.963 47.5 145.363 47.5ZM164.63 47.5C170.03 47.5 172.93 44.3 172.93 38.6C172.93 34.25 171.48 31.45 166.88 27.4C163.28 24.25 162.13 22.4 162.13 19.85C162.13 17.45 163.13 16.5 164.88 16.5C166.63 16.5 167.63 17.45 167.63 19.95V21.75H172.83V20.3C172.83 14.7 170.18 11.5 164.83 11.5C159.48 11.5 156.63 14.7 156.63 20.2C156.63 24.2 158.13 27.05 162.73 31.1C166.33 34.25 167.43 36.1 167.43 39C167.43 41.6 166.33 42.5 164.58 42.5C162.83 42.5 161.73 41.6 161.73 39.1V36.7H156.53V38.7C156.53 44.3 159.23 47.5 164.63 47.5ZM182.641 47H187.741L188.741 40.15H194.991V40.05L195.991 47H201.491L195.791 12H188.341L182.641 47ZM189.391 35.4L191.791 18.1H191.891L194.341 35.4H189.391ZM204.159 47H209.659V32H211.559C214.059 32 215.009 33.05 215.009 36.3V42.7C215.009 45.55 215.209 46.1 215.509 47H221.109C220.559 45.7 220.509 44.45 220.509 42.75V36.6C220.509 32.65 219.609 30.05 216.859 29.2V29.1C219.309 28.1 220.459 25.8 220.459 22.2V20.05C220.459 14.65 218.009 12 212.309 12H204.159V47ZM209.659 27V17H212.159C214.109 17 214.959 18.1 214.959 20.6V23.3C214.959 26.1 213.709 27 211.659 27H209.659ZM224.325 47H239.325V42H229.825V31.25H237.375V26.25H229.825V17H239.325V12H224.325V47ZM250.497 47H255.997V32.75H258.597C264.097 32.75 266.797 29.7 266.797 24.1V20.65C266.797 15.05 264.097 12 258.597 12H250.497V47ZM255.997 27.75V17H258.597C260.347 17 261.297 17.8 261.297 20.3V24.45C261.297 26.95 260.347 27.75 258.597 27.75H255.997ZM269.784 47H284.784V42H275.284V31.25H282.834V26.25H275.284V17H284.784V12H269.784V47ZM287.948 47H293.448V32H295.348C297.848 32 298.798 33.05 298.798 36.3V42.7C298.798 45.55 298.998 46.1 299.298 47H304.898C304.348 45.7 304.298 44.45 304.298 42.75V36.6C304.298 32.65 303.398 30.05 300.648 29.2V29.1C303.098 28.1 304.248 25.8 304.248 22.2V20.05C304.248 14.65 301.798 12 296.098 12H287.948V47ZM293.448 27V17H295.948C297.898 17 298.748 18.1 298.748 20.6V23.3C298.748 26.1 297.498 27 295.448 27H293.448ZM308.114 47H313.614V31.75H320.714V26.75H313.614V17H322.664V12H308.114V47ZM325.302 47H340.302V42H330.802V31.25H338.352V26.25H330.802V17H340.302V12H325.302V47ZM351.216 47.5C356.516 47.5 359.316 44.3 359.316 38.9V33.95H354.116V39.3C354.116 41.6 353.016 42.5 351.366 42.5C349.716 42.5 348.616 41.6 348.616 39.3V19.75C348.616 17.45 349.716 16.5 351.366 16.5C353.016 16.5 354.116 17.45 354.116 19.75V23.8H359.316V20.1C359.316 14.7 356.516 11.5 351.216 11.5C345.916 11.5 343.116 14.7 343.116 20.1V38.9C343.116 44.3 345.916 47.5 351.216 47.5ZM366.907 47H372.407V17H378.157V12H361.157V17H366.907V47Z" fill="white"/>
<rect width="380" height="4" fill="white"/>
<rect y="55" width="380" height="4" fill="white"/>
</svg>
